<svg width="45" height="45" viewBox="0 0 45 45" fill="none" xmlns="http://www.w3.org/2000/svg">
<path d="M45 22.5C45 34.9264 34.9264 45 22.5 45C10.0736 45 0 34.9264 0 22.5C0 10.0736 10.0736 0 22.5 0C34.9264 0 45 10.0736 45 22.5Z" fill="#888888"/>
<path d="M18.232 26C18.232 26.96 18.112 27.824 17.872 28.592C17.632 29.36 17.28 30.012 16.816 30.548C16.36 31.076 15.788 31.484 15.1 31.772C14.42 32.052 13.636 32.192 12.748 32.192C11.948 32.192 11.124 32.08 10.276 31.856L10.42 30.344C10.436 30.2 10.488 30.084 10.576 29.996C10.672 29.9 10.812 29.852 10.996 29.852C11.132 29.852 11.316 29.888 11.548 29.96C11.788 30.024 12.1 30.056 12.484 30.056C12.996 30.056 13.448 29.98 13.84 29.828C14.24 29.676 14.576 29.44 14.848 29.12C15.12 28.792 15.324 28.376 15.46 27.872C15.604 27.368 15.676 26.764 15.676 26.06V14.768H18.232V26Z" fill="white"/>
<path d="M27.5393 23.636C28.1873 23.636 28.7553 23.552 29.2433 23.384C29.7393 23.216 30.1513 22.98 30.4793 22.676C30.8153 22.364 31.0673 21.996 31.2353 21.572C31.4033 21.14 31.4873 20.664 31.4873 20.144C31.4873 19.096 31.1593 18.272 30.5033 17.672C29.8553 17.072 28.8673 16.772 27.5393 16.772H24.8753V23.636H27.5393ZM27.5393 14.768C28.6433 14.768 29.6033 14.896 30.4193 15.152C31.2353 15.408 31.9113 15.772 32.4473 16.244C32.9833 16.708 33.3793 17.272 33.6353 17.936C33.8993 18.6 34.0313 19.336 34.0313 20.144C34.0313 20.952 33.8913 21.696 33.6113 22.376C33.3313 23.048 32.9193 23.628 32.3753 24.116C31.8313 24.604 31.1513 24.984 30.3353 25.256C29.5273 25.52 28.5953 25.652 27.5393 25.652H24.8753V32H22.3193V14.768H27.5393Z" fill="white"/>
</svg>
